<svg xmlns="http://www.w3.org/2000/svg" xmlns:xlink="http://www.w3.org/1999/xlink" width="204" zoomAndPan="magnify" viewBox="0 0 153 153.000002" height="204" preserveAspectRatio="xMidYMid meet" version="1.0"><defs><clipPath id="6aec4e138c"><path d="M 17.59375 11 L 135.324219 11 L 135.324219 141 L 17.59375 141 Z M 17.59375 11 " clip-rule="nonzero"/></clipPath><clipPath id="a86af41869"><path d="M 17.59375 11 L 134 11 L 134 109 L 17.59375 109 Z M 17.59375 11 " clip-rule="nonzero"/></clipPath><clipPath id="ecb4f339fa"><path d="M 75 42 L 135.324219 42 L 135.324219 109 L 75 109 Z M 75 42 " clip-rule="nonzero"/></clipPath></defs><g clip-path="url(#6aec4e138c)"><path fill="#00549d" d="M 73.078125 12.105469 C 75.171875 10.929688 77.746094 10.929688 79.835938 12.105469 C 90.179688 17.925781 121.300781 35.4375 131.648438 41.257812 C 133.738281 42.429688 135.027344 44.605469 135.027344 46.960938 C 135.027344 58.597656 135.027344 93.625 135.027344 105.261719 C 135.027344 107.613281 133.738281 109.789062 131.648438 110.96875 C 121.304688 116.785156 90.183594 134.300781 79.835938 140.117188 C 77.746094 141.296875 75.167969 141.296875 73.078125 140.117188 C 62.734375 134.300781 31.613281 116.785156 21.265625 110.96875 C 19.175781 109.789062 17.890625 107.617188 17.890625 105.261719 C 17.890625 93.625 17.890625 58.601562 17.890625 46.964844 C 17.890625 44.609375 19.175781 42.433594 21.269531 41.257812 C 31.609375 35.4375 62.738281 17.925781 73.078125 12.105469 Z M 73.078125 12.105469 " fill-opacity="1" fill-rule="evenodd"/></g><g clip-path="url(#a86af41869)"><path fill="#0086d4" d="M 18.824219 108.261719 C 18.007812 107.160156 17.890625 106.117188 17.890625 104.710938 C 17.890625 93.140625 17.890625 58.316406 17.890625 46.746094 C 17.890625 44.402344 19.175781 42.238281 21.261719 41.070312 C 31.566406 35.285156 62.582031 17.875 72.890625 12.085938 C 74.976562 10.917969 77.804688 10.941406 79.890625 12.113281 C 90.195312 17.898438 121.105469 35.160156 131.414062 40.945312 C 132.246094 41.414062 132.878906 41.980469 133.445312 42.726562 Z M 18.824219 108.261719 " fill-opacity="1" fill-rule="evenodd"/></g><path fill="#ffffff" d="M 76.457031 32.851562 C 100.277344 32.851562 119.617188 52.234375 119.617188 76.113281 C 119.617188 99.988281 100.277344 119.371094 76.457031 119.371094 C 52.640625 119.371094 33.300781 99.988281 33.300781 76.113281 C 33.300781 52.234375 52.640625 32.851562 76.457031 32.851562 Z M 76.457031 54.480469 C 88.367188 54.480469 98.035156 64.171875 98.035156 76.113281 C 98.035156 88.046875 88.367188 97.742188 76.457031 97.742188 C 64.550781 97.742188 54.878906 88.046875 54.878906 76.113281 C 54.878906 64.171875 64.546875 54.480469 76.457031 54.480469 Z M 76.457031 54.480469 " fill-opacity="1" fill-rule="evenodd"/><g clip-path="url(#ecb4f339fa)"><path fill="#0075c0" d="M 133.441406 42.753906 C 135.03125 44.25 135 46.496094 135 48.269531 C 135 59.996094 134.902344 93.347656 135.027344 105.074219 C 135.039062 106.296875 134.636719 107.585938 134.03125 108.558594 L 75.203125 76.113281 Z M 133.441406 42.753906 " fill-opacity="1" fill-rule="evenodd"/></g><path fill="#ffffff" d="M 98.035156 66.84375 L 104.203125 66.84375 L 104.203125 85.382812 L 98.035156 85.382812 Z M 119.617188 66.84375 L 125.78125 66.84375 L 125.78125 85.382812 L 119.617188 85.382812 Z M 119.617188 66.84375 " fill-opacity="1" fill-rule="evenodd"/><path fill="#ffffff" d="M 91.871094 73.023438 L 110.367188 73.023438 L 110.367188 79.203125 L 91.871094 79.203125 Z M 113.449219 73.023438 L 131.945312 73.023438 L 131.945312 79.203125 L 113.449219 79.203125 Z M 113.449219 73.023438 " fill-opacity="1" fill-rule="evenodd"/></svg>