<svg xmlns="http://www.w3.org/2000/svg" xmlns:xlink="http://www.w3.org/1999/xlink" width="204" zoomAndPan="magnify" viewBox="0 0 153 153.000002" height="204" preserveAspectRatio="xMidYMid meet" version="1.0"><defs><clipPath id="57047fc8bb"><path d="M 20.582031 15.199219 L 132.351562 15.199219 L 132.351562 143 L 20.582031 143 Z M 20.582031 15.199219 " clip-rule="nonzero"/></clipPath></defs><g clip-path="url(#57047fc8bb)"><path fill="#e44d26" d="M 30.835938 130.070312 L 20.683594 15.804688 L 132.253906 15.804688 L 122.089844 130.046875 L 76.398438 142.757812 Z M 30.835938 130.070312 " fill-opacity="1" fill-rule="nonzero"/></g><path fill="#f16529" d="M 76.46875 133.046875 L 113.390625 122.78125 L 122.074219 25.144531 L 76.46875 25.144531 Z M 76.46875 133.046875 " fill-opacity="1" fill-rule="nonzero"/><path fill="#ebebeb" d="M 76.46875 67.527344 L 57.984375 67.527344 L 56.707031 53.175781 L 76.46875 53.175781 L 76.46875 39.164062 L 41.445312 39.164062 L 41.777344 42.917969 L 45.210938 81.539062 L 76.46875 81.539062 Z M 76.46875 103.921875 L 76.40625 103.9375 L 60.851562 99.722656 L 59.855469 88.542969 L 45.835938 88.542969 L 47.792969 110.550781 L 76.40625 118.515625 L 76.46875 118.5 Z M 76.46875 103.921875 " fill-opacity="1" fill-rule="nonzero"/><path fill="#ffffff" d="M 76.421875 67.527344 L 76.421875 81.539062 L 93.617188 81.539062 L 91.996094 99.714844 L 76.414062 103.933594 L 76.414062 118.511719 L 105.046875 110.550781 L 105.257812 108.179688 L 108.542969 71.285156 L 108.886719 67.523438 L 105.121094 67.523438 Z M 76.421875 39.164062 L 76.421875 53.175781 L 110.15625 53.175781 L 110.4375 50.023438 L 111.074219 42.917969 L 111.40625 39.160156 Z M 76.421875 39.164062 " fill-opacity="1" fill-rule="nonzero"/></svg>