<svg xmlns="http://www.w3.org/2000/svg" xmlns:xlink="http://www.w3.org/1999/xlink" width="204" zoomAndPan="magnify" viewBox="0 0 153 153.000002" height="204" preserveAspectRatio="xMidYMid meet" version="1.0"><defs><clipPath id="be1d87636c"><path d="M 60 12.46875 L 93 12.46875 L 93 82 L 60 82 Z M 60 12.46875 " clip-rule="nonzero"/></clipPath></defs><path fill="#4e7d9d" d="M 37.007812 130.007812 C 86.597656 138.183594 127.398438 126.320312 114.535156 120.425781 C 114.535156 120.425781 118.046875 123.367188 110.671875 125.640625 C 96.632812 129.96875 52.242188 131.269531 39.917969 125.816406 C 35.488281 123.851562 43.800781 121.128906 46.410156 120.5625 C 49.136719 119.960938 50.699219 120.070312 50.699219 120.070312 C 45.753906 116.539062 18.820312 127.003906 37.007812 130.007812 Z M 37.007812 130.007812 " fill-opacity="1" fill-rule="nonzero"/><path fill="#4e7d9d" d="M 122.398438 126.859375 C 122.398438 126.859375 120.832031 130.9375 103.90625 134.183594 C 84.816406 137.835938 61.257812 137.410156 47.292969 135.066406 C 47.292969 135.0625 50.160156 137.472656 64.859375 138.429688 C 87.230469 139.890625 121.585938 137.625 122.398438 126.859375 Z M 122.398438 126.859375 " fill-opacity="1" fill-rule="nonzero"/><path fill="#4e7d9d" d="M 93.316406 99.601562 C 78.9375 102.417969 70.632812 102.324219 60.117188 101.222656 C 51.992188 100.363281 57.308594 96.355469 57.308594 96.355469 C 36.269531 103.453125 69.023438 111.515625 98.417969 102.769531 C 95.300781 101.648438 93.316406 99.601562 93.316406 99.601562 Z M 93.316406 99.601562 " fill-opacity="1" fill-rule="nonzero"/><path fill="#4e7d9d" d="M 103.070312 105.050781 C 102.964844 105.34375 102.601562 105.664062 102.601562 105.671875 C 133.734375 97.347656 122.289062 76.328125 107.402344 81.652344 C 106.09375 82.125 105.410156 83.214844 105.410156 83.214844 C 105.410156 83.214844 106.234375 82.878906 108.074219 82.488281 C 115.601562 80.886719 126.378906 92.730469 103.070312 105.050781 Z M 103.070312 105.050781 " fill-opacity="1" fill-rule="nonzero"/><g clip-path="url(#be1d87636c)"><path fill="#f2941b" d="M 62.152344 52.625 C 56.363281 61.476562 65 70.980469 76.769531 81.789062 C 72.179688 71.238281 56.609375 61.996094 76.777344 45.796875 C 101.925781 25.597656 89.015625 12.46875 89.015625 12.46875 C 94.230469 33.328125 70.660156 39.625 62.152344 52.625 Z M 62.152344 52.625 " fill-opacity="1" fill-rule="nonzero"/></g><path fill="#f2941b" d="M 104.582031 38.277344 C 104.582031 38.273438 62.054688 49.074219 82.367188 72.886719 C 88.363281 79.902344 80.792969 86.222656 80.792969 86.222656 C 80.792969 86.222656 96.007812 78.230469 89.015625 68.226562 C 82.488281 58.894531 77.484375 54.261719 104.582031 38.277344 Z M 104.582031 38.277344 " fill-opacity="1" fill-rule="nonzero"/><path fill="#4e7d9d" d="M 60.289062 110.1875 C 41.191406 115.617188 71.90625 126.835938 96.230469 116.238281 C 92.253906 114.660156 89.394531 112.835938 89.394531 112.835938 C 78.550781 114.933594 73.519531 115.097656 63.671875 113.949219 C 55.539062 113 60.289062 110.1875 60.289062 110.1875 Z M 60.289062 110.1875 " fill-opacity="1" fill-rule="nonzero"/><path fill="#4e7d9d" d="M 97.488281 89.707031 C 99.875 88.046875 103.171875 86.617188 103.171875 86.617188 C 103.171875 86.617188 93.792969 88.328125 84.445312 89.128906 C 73.011719 90.101562 60.734375 90.292969 54.578125 89.453125 C 39.992188 87.476562 62.570312 82.019531 62.570312 82.019531 C 62.570312 82.019531 53.800781 81.417969 43.027344 86.714844 C 30.269531 92.988281 74.566406 95.839844 97.488281 89.707031 Z M 97.488281 89.707031 " fill-opacity="1" fill-rule="nonzero"/></svg>