<svg xmlns="http://www.w3.org/2000/svg" xmlns:xlink="http://www.w3.org/1999/xlink" width="204" zoomAndPan="magnify" viewBox="0 0 153 153.000002" height="204" preserveAspectRatio="xMidYMid meet" version="1.0"><defs><clipPath id="c249854653"><path d="M 15.699219 15.199219 L 143.113281 15.199219 L 143.113281 142.617188 L 15.699219 142.617188 Z M 15.699219 15.199219 " clip-rule="nonzero"/></clipPath><clipPath id="0b4d46e563"><path d="M 15.699219 15.199219 L 80 15.199219 L 80 142.617188 L 15.699219 142.617188 Z M 15.699219 15.199219 " clip-rule="nonzero"/></clipPath></defs><g clip-path="url(#c249854653)"><path fill="#ffc44d" d="M 20.4375 14.90625 C 19.164062 14.90625 17.949219 15.453125 17.105469 16.40625 C 16.261719 17.363281 15.871094 18.636719 16.027344 19.902344 L 27.878906 114.722656 C 28.066406 116.199219 28.972656 117.480469 30.304688 118.148438 L 77.714844 141.851562 C 78.964844 142.476562 80.4375 142.476562 81.691406 141.851562 L 129.101562 118.148438 C 130.429688 117.480469 131.339844 116.199219 131.523438 114.722656 L 143.375 19.902344 C 143.535156 18.636719 143.140625 17.363281 142.296875 16.40625 C 141.453125 15.453125 140.242188 14.90625 138.964844 14.90625 Z M 20.4375 14.90625 " fill-opacity="1" fill-rule="nonzero"/></g><g clip-path="url(#0b4d46e563)"><path fill="#e5b045" d="M 79.703125 14.90625 L 79.703125 142.320312 C 79.019531 142.320312 78.339844 142.164062 77.714844 141.851562 L 30.304688 118.148438 C 28.972656 117.480469 28.066406 116.199219 27.878906 114.722656 L 16.027344 19.902344 C 15.871094 18.636719 16.261719 17.363281 17.105469 16.40625 C 17.949219 15.453125 19.164062 14.90625 20.4375 14.90625 Z M 79.703125 14.90625 " fill-opacity="1" fill-rule="evenodd"/></g><path fill="#cfd8dc" d="M 70.8125 32.683594 C 73.269531 32.683594 75.257812 34.671875 75.257812 37.128906 L 75.257812 114.171875 C 75.257812 115.757812 74.414062 117.21875 73.042969 118.015625 C 71.675781 118.8125 69.984375 118.816406 68.609375 118.03125 L 47.867188 106.175781 C 45.734375 104.960938 44.992188 102.246094 46.210938 100.113281 C 47.429688 97.980469 50.144531 97.242188 52.277344 98.460938 L 66.367188 106.511719 L 66.367188 37.128906 C 66.367188 34.671875 68.359375 32.683594 70.8125 32.683594 Z M 70.8125 32.683594 " fill-opacity="1" fill-rule="evenodd"/><path fill="#eceff1" d="M 84.148438 37.128906 C 84.148438 34.671875 86.136719 32.683594 88.59375 32.683594 L 118.226562 32.683594 C 120.679688 32.683594 122.667969 34.671875 122.667969 37.128906 C 122.667969 39.582031 120.679688 41.574219 118.226562 41.574219 L 93.039062 41.574219 L 93.039062 70.109375 L 114.296875 65.382812 C 115.683594 65.078125 117.132812 65.449219 118.195312 66.386719 C 119.261719 67.324219 119.816406 68.710938 119.6875 70.125 L 116.726562 102.722656 C 116.585938 104.253906 115.664062 105.605469 114.285156 106.292969 L 90.582031 118.148438 C 88.386719 119.246094 85.714844 118.355469 84.617188 116.160156 C 83.519531 113.964844 84.410156 111.292969 86.605469 110.195312 L 108.097656 99.449219 L 110.285156 75.382812 L 89.558594 79.988281 C 88.242188 80.28125 86.863281 79.960938 85.8125 79.117188 C 84.761719 78.273438 84.148438 76.996094 84.148438 75.648438 Z M 84.148438 37.128906 " fill-opacity="1" fill-rule="evenodd"/></svg>