<svg xmlns="http://www.w3.org/2000/svg" xmlns:xlink="http://www.w3.org/1999/xlink" width="204" zoomAndPan="magnify" viewBox="0 0 153 153.000002" height="204" preserveAspectRatio="xMidYMid meet" version="1.0"><defs><clipPath id="496c15e5d6"><path d="M 12.34375 12 L 106 12 L 106 106 L 12.34375 106 Z M 12.34375 12 " clip-rule="nonzero"/></clipPath></defs><path fill="#000000" d="M 109.027344 51.179688 L 109.03125 51.179688 L 109.03125 51.15625 Z M 109.027344 51.179688 " fill-opacity="1" fill-rule="nonzero"/><path fill="#f2bb30" d="M 122.042969 105.980469 C 130.828125 105.980469 134.078125 99.851562 137.132812 90.664062 C 140.296875 81.203125 140.160156 72.101562 137.132812 59.980469 C 134.953125 51.25 130.835938 44.664062 122.042969 44.664062 L 110.71875 44.664062 L 110.71875 58.066406 C 110.71875 68.460938 101.902344 77.222656 91.847656 77.222656 L 61.667969 77.222656 C 53.414062 77.222656 46.578125 84.285156 46.578125 92.566406 L 46.578125 121.328125 C 46.578125 129.519531 53.699219 134.324219 61.667969 136.671875 C 71.214844 139.46875 80.402344 139.972656 91.84375 136.671875 C 99.441406 134.46875 106.933594 130.027344 106.933594 121.328125 L 106.933594 109.828125 L 76.78125 109.828125 L 76.78125 105.988281 L 122.042969 105.988281 Z M 93.738281 117.484375 C 96.871094 117.484375 99.417969 120.058594 99.417969 123.222656 C 99.417969 126.417969 96.875 128.988281 93.738281 128.988281 C 90.625 128.988281 88.054688 126.386719 88.054688 123.222656 C 88.085938 120.027344 90.636719 117.484375 93.738281 117.484375 Z M 93.738281 117.484375 " fill-opacity="1" fill-rule="nonzero"/><g clip-path="url(#496c15e5d6)"><path fill="#35668f" d="M 31.035156 105.988281 L 41.40625 105.988281 L 41.40625 92.195312 C 41.40625 82.222656 50.023438 73.429688 60.277344 73.429688 L 90.449219 73.429688 C 98.839844 73.429688 105.539062 66.511719 105.539062 58.085938 L 105.539062 29.300781 C 105.539062 21.109375 98.648438 14.972656 90.449219 13.59375 C 80.335938 11.921875 69.34375 12.015625 60.277344 13.625 L 60.28125 13.621094 C 47.507812 15.878906 45.199219 20.59375 45.199219 29.320312 L 45.199219 40.824219 L 75.402344 40.824219 L 75.402344 44.667969 L 33.863281 44.667969 C 25.078125 44.667969 17.386719 49.953125 14.992188 59.984375 C 12.222656 71.488281 12.113281 78.660156 14.992188 90.671875 C 17.132812 99.601562 22.253906 105.988281 31.035156 105.988281 Z M 58.390625 33.140625 C 55.257812 33.140625 52.707031 30.566406 52.707031 27.402344 C 52.746094 24.207031 55.257812 21.636719 58.390625 21.636719 C 61.5 21.636719 64.070312 24.230469 64.070312 27.402344 C 64.070312 30.570312 61.527344 33.140625 58.390625 33.140625 Z M 58.390625 33.140625 " fill-opacity="1" fill-rule="nonzero"/></g></svg>