<svg xmlns="http://www.w3.org/2000/svg" xmlns:xlink="http://www.w3.org/1999/xlink" width="204" zoomAndPan="magnify" viewBox="0 0 153 153.000002" height="204" preserveAspectRatio="xMidYMid meet" version="1.0"><defs><clipPath id="5d8b34c88f"><path d="M 12.613281 20 L 140 20 L 140 135 L 12.613281 135 Z M 12.613281 20 " clip-rule="nonzero"/></clipPath></defs><g clip-path="url(#5d8b34c88f)"><path fill="#00d8ff" d="M 117.332031 57.402344 C 115.976562 56.9375 114.609375 56.503906 113.230469 56.105469 C 113.460938 55.15625 113.675781 54.21875 113.863281 53.296875 C 116.96875 38.160156 114.9375 25.964844 108.007812 21.953125 C 101.363281 18.101562 90.5 22.117188 79.523438 31.710938 C 78.441406 32.660156 77.386719 33.632812 76.351562 34.632812 C 75.660156 33.96875 74.957031 33.316406 74.242188 32.675781 C 62.742188 22.417969 51.214844 18.09375 44.292969 22.117188 C 37.652344 25.980469 35.6875 37.441406 38.480469 51.789062 C 38.757812 53.207031 39.074219 54.621094 39.421875 56.027344 C 37.789062 56.492188 36.214844 56.988281 34.710938 57.515625 C 21.226562 62.238281 12.613281 69.640625 12.613281 77.320312 C 12.613281 85.25 21.859375 93.203125 35.902344 98.027344 C 37.042969 98.417969 38.1875 98.777344 39.347656 99.109375 C 38.96875 100.621094 38.636719 102.144531 38.347656 103.675781 C 35.683594 117.773438 37.761719 128.964844 44.382812 132.800781 C 51.21875 136.761719 62.695312 132.691406 73.871094 122.875 C 74.777344 122.078125 75.664062 121.257812 76.527344 120.414062 C 77.648438 121.5 78.796875 122.550781 79.972656 123.570312 C 90.796875 132.929688 101.488281 136.707031 108.101562 132.863281 C 114.933594 128.886719 117.152344 116.863281 114.269531 102.238281 C 114.042969 101.089844 113.789062 99.949219 113.507812 98.816406 C 114.3125 98.578125 115.101562 98.332031 115.875 98.074219 C 130.476562 93.214844 139.976562 85.355469 139.976562 77.320312 C 139.976562 69.613281 131.085938 62.160156 117.332031 57.402344 Z M 114.164062 92.886719 C 113.46875 93.117188 112.753906 93.339844 112.023438 93.558594 C 110.414062 88.429688 108.238281 82.980469 105.574219 77.347656 C 108.117188 71.847656 110.207031 66.464844 111.773438 61.371094 C 113.078125 61.75 114.339844 62.152344 115.558594 62.570312 C 127.34375 66.648438 134.535156 72.675781 134.535156 77.320312 C 134.535156 82.265625 126.769531 88.6875 114.164062 92.886719 Z M 108.933594 103.296875 C 110.207031 109.765625 110.390625 115.613281 109.542969 120.1875 C 108.785156 124.296875 107.261719 127.035156 105.375 128.132812 C 101.359375 130.464844 92.777344 127.429688 83.519531 119.429688 C 82.425781 118.480469 81.359375 117.5 80.316406 116.492188 C 83.90625 112.550781 87.492188 107.964844 90.996094 102.875 C 97.152344 102.324219 102.96875 101.429688 108.242188 100.203125 C 108.496094 101.230469 108.726562 102.261719 108.933594 103.296875 Z M 56.035156 127.726562 C 52.113281 129.117188 48.988281 129.160156 47.101562 128.066406 C 43.082031 125.738281 41.414062 116.75 43.691406 104.695312 C 43.960938 103.273438 44.273438 101.855469 44.621094 100.449219 C 49.839844 101.609375 55.613281 102.441406 61.785156 102.945312 C 65.308594 107.925781 69 112.503906 72.71875 116.515625 C 71.925781 117.285156 71.117188 118.03125 70.292969 118.761719 C 65.347656 123.101562 60.398438 126.179688 56.035156 127.726562 Z M 37.664062 92.855469 C 31.453125 90.722656 26.324219 87.949219 22.808594 84.925781 C 19.648438 82.207031 18.054688 79.507812 18.054688 77.320312 C 18.054688 72.660156 24.96875 66.71875 36.5 62.675781 C 37.898438 62.1875 39.363281 61.726562 40.882812 61.292969 C 42.476562 66.5 44.570312 71.945312 47.089844 77.453125 C 44.535156 83.039062 42.414062 88.574219 40.804688 93.84375 C 39.75 93.539062 38.703125 93.210938 37.664062 92.855469 Z M 43.820312 50.738281 C 41.425781 38.449219 43.015625 29.175781 47.015625 26.851562 C 51.277344 24.371094 60.699219 27.90625 70.628906 36.765625 C 71.277344 37.34375 71.914062 37.933594 72.542969 38.535156 C 68.839844 42.527344 65.183594 47.074219 61.691406 52.027344 C 55.703125 52.585938 49.96875 53.480469 44.695312 54.679688 C 44.371094 53.375 44.078125 52.058594 43.820312 50.738281 Z M 98.757812 64.367188 C 97.515625 62.207031 96.222656 60.074219 94.886719 57.96875 C 98.949219 58.484375 102.84375 59.167969 106.5 60.007812 C 105.402344 63.542969 104.035156 67.238281 102.421875 71.027344 C 101.246094 68.78125 100.023438 66.5625 98.757812 64.367188 Z M 76.355469 42.441406 C 78.863281 45.175781 81.378906 48.222656 83.851562 51.535156 C 78.835938 51.296875 73.8125 51.292969 68.796875 51.53125 C 71.273438 48.25 73.808594 45.207031 76.355469 42.441406 Z M 53.808594 64.40625 C 52.558594 66.582031 51.359375 68.789062 50.210938 71.019531 C 48.628906 67.246094 47.273438 63.535156 46.164062 59.949219 C 49.800781 59.132812 53.675781 58.464844 57.710938 57.957031 C 56.359375 60.074219 55.058594 62.226562 53.808594 64.402344 Z M 57.828125 97.070312 C 53.65625 96.601562 49.722656 95.96875 46.089844 95.175781 C 47.214844 91.527344 48.601562 87.734375 50.21875 83.878906 C 51.371094 86.113281 52.574219 88.320312 53.828125 90.5 C 55.121094 92.738281 56.457031 94.933594 57.828125 97.070312 Z M 76.503906 112.582031 C 73.925781 109.785156 71.355469 106.691406 68.84375 103.367188 C 71.28125 103.464844 73.765625 103.511719 76.292969 103.511719 C 78.890625 103.511719 81.457031 103.453125 83.980469 103.339844 C 81.503906 106.726562 79 109.824219 76.503906 112.582031 Z M 102.472656 83.679688 C 104.175781 87.578125 105.613281 91.351562 106.75 94.9375 C 103.058594 95.785156 99.070312 96.464844 94.871094 96.972656 C 96.21875 94.828125 97.519531 92.65625 98.78125 90.460938 C 100.0625 88.230469 101.292969 85.96875 102.472656 83.679688 Z M 94.066406 87.730469 C 92.136719 91.097656 90.101562 94.402344 87.957031 97.636719 C 84.074219 97.910156 80.1875 98.046875 76.292969 98.046875 C 72.332031 98.046875 68.476562 97.921875 64.761719 97.679688 C 62.5625 94.453125 60.488281 91.144531 58.539062 87.761719 C 56.597656 84.394531 54.785156 80.953125 53.105469 77.449219 C 54.78125 73.945312 56.585938 70.503906 58.523438 67.132812 L 58.519531 67.136719 C 60.453125 63.765625 62.515625 60.46875 64.695312 57.257812 C 68.484375 56.96875 72.367188 56.820312 76.292969 56.820312 C 80.238281 56.820312 84.125 56.972656 87.914062 57.261719 C 90.074219 60.46875 92.121094 63.753906 94.050781 67.105469 C 95.992188 70.46875 97.820312 73.890625 99.539062 77.371094 C 97.839844 80.890625 96.015625 84.34375 94.066406 87.730469 Z M 105.292969 26.6875 C 109.554688 29.160156 111.214844 39.125 108.535156 52.191406 C 108.363281 53.027344 108.171875 53.875 107.964844 54.738281 C 102.679688 53.511719 96.941406 52.597656 90.933594 52.035156 C 87.433594 47.027344 83.808594 42.472656 80.167969 38.535156 C 81.121094 37.609375 82.097656 36.710938 83.097656 35.835938 C 92.5 27.613281 101.289062 24.367188 105.292969 26.6875 Z M 76.292969 65.894531 C 82.574219 65.894531 87.667969 71.007812 87.667969 77.320312 C 87.667969 83.628906 82.574219 88.746094 76.292969 88.746094 C 70.011719 88.746094 64.921875 83.628906 64.921875 77.320312 C 64.921875 71.007812 70.011719 65.894531 76.292969 65.894531 Z M 76.292969 65.894531 " fill-opacity="1" fill-rule="nonzero"/></g></svg>