<svg xmlns="http://www.w3.org/2000/svg" xmlns:xlink="http://www.w3.org/1999/xlink" width="204" zoomAndPan="magnify" viewBox="0 0 153 153.000002" height="204" preserveAspectRatio="xMidYMid meet" version="1.0"><defs><clipPath id="6346376885"><path d="M 20.582031 12.097656 L 132.351562 12.097656 L 132.351562 140 L 20.582031 140 Z M 20.582031 12.097656 " clip-rule="nonzero"/></clipPath></defs><g clip-path="url(#6346376885)"><path fill="#e44d26" d="M 30.835938 126.96875 L 20.683594 12.703125 L 132.253906 12.703125 L 122.089844 126.945312 L 76.398438 139.65625 Z M 30.835938 126.96875 " fill-opacity="1" fill-rule="nonzero"/></g><path fill="#f16529" d="M 76.46875 129.945312 L 113.390625 119.679688 L 122.074219 22.042969 L 76.46875 22.042969 Z M 76.46875 129.945312 " fill-opacity="1" fill-rule="nonzero"/><path fill="#ebebeb" d="M 76.46875 64.425781 L 57.984375 64.425781 L 56.707031 50.074219 L 76.46875 50.074219 L 76.46875 36.0625 L 41.445312 36.0625 L 41.777344 39.816406 L 45.210938 78.4375 L 76.46875 78.4375 Z M 76.46875 100.820312 L 76.40625 100.835938 L 60.851562 96.621094 L 59.855469 85.441406 L 45.835938 85.441406 L 47.792969 107.449219 L 76.40625 115.414062 L 76.46875 115.398438 Z M 76.46875 100.820312 " fill-opacity="1" fill-rule="nonzero"/><path fill="#ffffff" d="M 76.421875 64.425781 L 76.421875 78.4375 L 93.617188 78.4375 L 91.996094 96.613281 L 76.414062 100.832031 L 76.414062 115.410156 L 105.046875 107.449219 L 105.257812 105.078125 L 108.542969 68.183594 L 108.886719 64.421875 L 105.121094 64.421875 Z M 76.421875 36.0625 L 76.421875 50.074219 L 110.15625 50.074219 L 110.4375 46.921875 L 111.074219 39.816406 L 111.40625 36.058594 Z M 76.421875 36.0625 " fill-opacity="1" fill-rule="nonzero"/></svg>